<svg width="200" height="120" viewBox="0 0 200 120" fill="none" xmlns="http://www.w3.org/2000/svg">
<path d="M56.362 43.4362C56.3104 45.435 56.557 47.4303 57.0936 49.3564C57.6846 51.0035 58.3963 52.6048 59.2229 54.1473C59.5188 54.6034 59.6802 55.1337 59.6886 55.6773C59.6886 56.3424 59.2894 57.0081 58.4248 57.6728L54.2343 60.4667C53.7287 60.8308 53.1275 61.0389 52.505 61.0652C51.7473 61.0131 51.0361 60.6812 50.5095 60.134C49.6129 59.1709 48.8108 58.124 48.1141 57.0078C47.4491 55.877 46.7833 54.6123 46.0521 53.083C40.8638 59.2017 34.3449 62.261 26.4954 62.261C20.9061 62.261 16.4513 60.664 13.192 57.4701C9.93265 54.2762 8.26953 50.0214 8.26953 44.7001C8.26953 39.0461 10.265 34.4564 14.3228 30.9974C18.3806 27.5385 23.768 25.8088 30.6194 25.8088C32.979 25.8281 35.3346 26.006 37.6703 26.3412C40.1316 26.6739 42.6593 27.2058 45.3198 27.8047V22.9488C45.3198 17.8917 44.2552 14.3681 42.1935 12.3058C40.0643 10.2438 36.473 9.24607 31.3509 9.24607C28.9303 9.24596 26.5184 9.53625 24.1669 10.1107C21.7216 10.6933 19.3209 11.449 16.9829 12.3723C16.2264 12.7108 15.4487 12.9996 14.6547 13.2369C14.3103 13.3505 13.9522 13.4176 13.5901 13.4366C12.6589 13.4366 12.1931 12.7715 12.1931 11.3746V8.11527C12.1931 7.05063 12.3262 6.25215 12.6589 5.78713C13.1608 5.1808 13.7993 4.70207 14.522 4.39016C17.19 3.07009 20.0028 2.06559 22.9034 1.397C26.2929 0.527292 29.7811 0.10243 33.2802 0.133121C41.1973 0.133121 46.9829 1.92894 50.708 5.52096C54.3666 9.11299 56.2289 14.5674 56.2289 21.8845V43.4362H56.362ZM29.3559 53.5469C31.6894 53.5212 34.0033 53.1169 36.2072 52.3496C38.6487 51.505 40.827 50.0369 42.5262 48.091C43.5985 46.8649 44.3726 45.4074 44.7879 43.8324C45.2449 41.9378 45.4682 39.9943 45.4529 38.0454V35.2545C43.4361 34.7635 41.3933 34.386 39.3342 34.1237C37.26 33.8609 35.1714 33.7282 33.0806 33.7263C28.6239 33.7263 25.3646 34.591 23.1696 36.3879C20.9745 38.1849 19.9102 40.7115 19.9102 44.0374C19.9102 47.1636 20.7087 49.4918 22.3715 51.0884C23.9684 52.7515 26.2962 53.5496 29.3559 53.5496V53.5469ZM82.7697 60.731C81.5723 60.731 80.7742 60.5313 80.2419 60.0659C79.7096 59.6667 79.2442 58.7351 78.845 57.4716L63.2126 6.05329C62.9096 5.19258 62.7087 4.29926 62.6141 3.39168C62.6141 2.32704 63.1464 1.72856 64.2111 1.72856H70.7297C71.9936 1.72856 72.859 1.92818 73.324 2.39358C73.8563 2.79282 74.2552 3.72438 74.6548 4.98788L85.8298 49.0226L96.2062 4.98902C96.5389 3.65822 96.9378 2.79396 97.4701 2.39472C98.0024 1.99548 98.9336 1.7297 100.132 1.7297H105.455C106.719 1.7297 107.584 1.92932 108.116 2.39472C108.649 2.79396 109.114 3.72552 109.38 4.98902L119.89 49.556L131.394 4.98902C131.793 3.65822 132.259 2.79396 132.725 2.39472C133.257 1.99548 134.122 1.7297 135.319 1.7297H141.506C142.57 1.7297 143.169 2.26202 143.169 3.39282C143.153 3.75072 143.109 4.10676 143.036 4.45746C142.931 5.02488 142.775 5.58157 142.57 6.12059L126.539 57.5389C126.14 58.8692 125.674 59.734 125.142 60.1332C124.39 60.6146 123.506 60.8472 122.614 60.7983H116.893C115.629 60.7983 114.764 60.5986 114.232 60.1332C113.699 59.6678 113.234 58.8024 112.968 57.4716L102.658 14.5674L92.4142 57.4051C92.0815 58.7359 91.6826 59.6002 91.1503 60.0667C90.618 60.5332 89.6868 60.7317 88.4887 60.7317L82.7697 60.731ZM168.245 62.5268C164.795 62.5305 161.357 62.1286 158.001 61.3294C154.676 60.531 152.081 59.6663 150.352 58.6678C149.287 58.0694 148.556 57.404 148.29 56.8047C148.031 56.2175 147.895 55.5834 147.891 54.9416V51.5515C147.891 50.1545 148.423 49.4895 149.421 49.4895C149.828 49.4909 150.232 49.5583 150.618 49.6891C151.017 49.8222 151.616 50.0884 152.281 50.3541C154.631 51.3875 157.084 52.168 159.598 52.6823C162.204 53.2112 164.855 53.4787 167.514 53.4808C171.704 53.4808 174.964 52.7492 177.226 51.2857C178.309 50.6319 179.2 49.7028 179.808 48.5928C180.416 47.4829 180.719 46.2317 180.686 44.9667C180.709 44.1104 180.563 43.2579 180.254 42.4587C179.946 41.6594 179.482 40.9292 178.89 40.3104C177.693 39.0465 175.43 37.9149 172.172 36.8503L162.525 33.8575C157.669 32.3279 154.077 30.0663 151.882 27.0723C149.74 24.3118 148.571 20.9209 148.556 17.4271C148.502 14.8515 149.121 12.3065 150.352 10.0434C151.54 7.9034 153.174 6.04338 155.143 4.58902C157.216 3.01948 159.561 1.84643 162.061 1.12894C164.784 0.345173 167.607 -0.0351704 170.44 4.13861e-05C171.93 -0.0107591 173.419 0.0781597 174.897 0.266202C176.427 0.465822 177.825 0.731982 179.22 0.997762C180.551 1.33046 181.815 1.66278 183.012 2.0624C183.983 2.36265 184.919 2.76396 185.806 3.25974C186.589 3.65471 187.272 4.22359 187.801 4.92286C188.234 5.57015 188.444 6.34066 188.4 7.11793V10.2442C188.4 11.6411 187.868 12.3734 186.87 12.3734C186.338 12.3734 185.473 12.1073 184.342 11.575C180.55 9.84543 176.293 8.98067 171.571 8.98067C167.779 8.98067 164.786 9.57915 162.724 10.8438C160.662 12.1084 159.598 14.0377 159.598 16.764C159.579 17.6472 159.748 18.5244 160.091 19.3382C160.435 20.152 160.947 20.8842 161.593 21.4868C162.924 22.7507 165.385 24.0145 168.91 25.1453L178.356 28.137C183.147 29.667 186.604 31.7955 188.666 34.5225C190.696 37.1984 191.774 40.4765 191.726 43.8351C191.76 46.5069 191.168 49.1495 189.996 51.5511C188.816 53.8278 187.16 55.8241 185.141 57.4047C182.945 59.1142 180.437 60.3798 177.757 61.131C174.676 62.0786 171.468 62.5497 168.245 62.5279L168.245 62.5268Z" fill="white"/>
<path d="M180.817 94.8535C158.933 111.017 127.137 119.598 99.7986 119.598C61.4841 119.6 26.9612 105.431 0.886987 81.8839C-1.17499 80.0208 0.687366 77.4938 3.14859 78.9561C31.3521 95.3197 66.1411 105.23 102.127 105.23C126.406 105.23 153.08 100.173 177.625 89.7976C181.284 88.1345 184.41 92.193 180.819 94.8546L180.817 94.8535Z" fill="#FF9900"/>
<path d="M189.93 84.4778C187.136 80.8857 171.438 82.7485 164.321 83.6131C162.192 83.8793 161.86 82.0162 163.788 80.62C176.294 71.8397 196.848 74.3671 199.243 77.2941C201.638 80.2873 198.578 100.841 186.87 110.686C185.074 112.216 183.345 111.418 184.143 109.422C186.804 102.837 192.724 88.0032 189.93 84.4778Z" fill="#FF9900"/>
</svg>
