<svg width="117" height="117" viewBox="0 0 117 117" fill="none" xmlns="http://www.w3.org/2000/svg">
<g clip-path="url(#clip0_1077_215)">
<path d="M137.158 3.13033L134 7.55979V13C134 55.5241 99.3917 92 58.5 92C16.8025 92 -17 58.1975 -17 16.5V7.1301L-24.9221 2.12666C-31.247 -1.86802 -34.287 -5.62552 -35.7487 -8.55052C-37.15 -11.3545 -37.6344 -14.4404 -37.0482 -18.2275C-35.7481 -26.6257 -29.1914 -37.8098 -16.9218 -49.8822C-5.0427 -61.5704 10.4218 -72.3321 25.8605 -80.1178C41.6708 -88.0907 55.5779 -92 64.5 -92C84.1259 -92 111.613 -78.8311 129.479 -58.3786C138.16 -48.4407 143.591 -37.8523 145.167 -27.7097C146.675 -18.0045 144.855 -7.66415 137.158 3.13033Z" stroke="white" stroke-width="34"/>
<rect y="80" width="117" height="37" fill="white"/>
</g>
<defs>
<clipPath id="clip0_1077_215">
<rect width="117" height="117" fill="white" transform="translate(117 117) rotate(-180)"/>
</clipPath>
</defs>
</svg>
