<svg width="840" height="727" viewBox="0 0 840 727" fill="none" xmlns="http://www.w3.org/2000/svg">
<g clip-path="url(#clip0_605_136)">
<g opacity="0.8">
<path opacity="0.8" d="M432 245.769C512.888 245.769 578.46 194.971 578.46 132.309C578.46 69.6466 512.888 18.8489 432 18.8489C351.112 18.8489 285.54 69.6466 285.54 132.309C285.54 194.971 351.112 245.769 432 245.769Z" fill="url(#paint0_linear_605_136)"/>
</g>
<path d="M432 21.3689C511.09 21.3689 575.21 71.0389 575.21 132.309C575.21 193.579 511.09 243.249 432 243.249C352.91 243.249 288.79 193.579 288.79 132.309C288.79 71.0389 352.907 21.3689 432 21.3689Z" fill="#475569"/>
<path opacity="0.54" d="M311.94 144.639C311.94 83.3689 376.05 33.6989 455.14 33.6989C479.695 33.5637 504.005 38.5818 526.5 48.4289C501.33 31.4289 468.4 21.0989 432.36 21.0989C353.27 21.0989 289.15 70.7689 289.15 132.039C289.15 173.179 318.06 209.089 361.01 228.249C330.94 207.909 311.94 177.999 311.94 144.639Z" fill="#334155"/>
<g opacity="0.3">
<path opacity="0.3" d="M469.67 566.219L482 529.629C486.24 516.886 486.274 503.119 482.097 490.356C477.92 477.593 469.753 466.509 458.8 458.739L458.9 458.679C454.05 455.264 448.732 452.57 443.11 450.679V450.679L442.94 450.619L442.75 450.559C437.293 448.713 431.604 447.643 425.85 447.379C423.815 447.274 421.775 447.274 419.74 447.379C416.209 447.564 412.699 448.049 409.25 448.829C408.25 449.049 407.25 449.299 406.34 449.569C405.43 449.839 404.41 450.129 403.46 450.439C401.56 451.069 399.69 451.779 397.86 452.589C396.94 452.989 396.03 453.409 395.14 453.859C392.449 455.188 389.859 456.712 387.39 458.419C386.56 458.989 385.75 459.579 384.95 460.179C375.065 467.696 367.666 478.008 363.71 489.779L344.33 547.429C341.28 556.47 340.363 566.094 341.65 575.549C341.85 576.999 342.1 578.439 342.39 579.869C342.68 581.299 343.04 582.709 343.39 584.109C343.66 585.039 343.94 585.969 344.25 586.889C344.71 588.259 345.25 589.629 345.76 590.969C346.13 591.859 346.52 592.749 346.93 593.629C347.74 595.379 348.64 597.089 349.61 598.759C350.575 600.441 351.63 602.07 352.77 603.639C353.61 604.819 354.5 605.979 355.42 607.099C356.645 608.614 357.954 610.06 359.34 611.429C365.313 617.451 372.461 622.179 380.34 625.319V625.319L380.68 625.459C381.103 624.708 381.571 623.984 382.08 623.289C385.08 619.179 390.3 616.289 395.27 617.369C395.63 617.449 395.99 617.559 396.35 617.669C398.87 618.559 401.35 620.149 403.78 620.929C404.664 621.326 405.624 621.525 406.593 621.513C407.562 621.501 408.516 621.278 409.39 620.859C414.25 618.269 412.45 610.099 416.62 606.519C416.814 606.354 417.018 606.2 417.23 606.059C417.171 605.986 417.118 605.909 417.07 605.829C420.29 603.829 424.75 605.159 428.46 606.449C432.46 607.859 437.68 608.809 440.46 605.539C442.34 603.299 442.2 599.889 443.99 597.539C446.07 594.839 449.99 594.539 453.38 595.019L453.55 595.069C460.05 597.749 467.15 593.299 466.65 586.289C466.397 579.469 467.422 572.662 469.67 566.219V566.219Z" fill="#F1F5F9"/>
</g>
<path d="M383.21 620.209C386.13 616.209 391.14 613.409 395.94 614.499C400.74 615.589 405.29 620.159 409.56 617.869C415.4 614.749 411.26 603.279 420.74 602.429C422.715 602.298 424.694 602.641 426.51 603.429C430.51 605.059 436.77 606.899 439.85 603.229C441.66 601.069 441.53 597.779 443.26 595.539C445.26 592.939 449.07 592.609 452.32 593.109L452.48 593.159C458.75 595.749 465.61 591.449 465.12 584.689C464.49 575.689 467.35 567.209 467.97 565.369L479.85 530.059C484.903 514.922 483.758 498.4 476.666 484.104C469.573 469.809 457.11 458.902 442 453.769V453.769C426.864 448.722 410.346 449.872 396.055 456.966C381.764 464.06 370.862 476.522 365.73 491.629L347 547.159C342.132 561.763 343.025 577.676 349.497 591.644C355.969 605.612 367.531 616.581 381.82 622.309C382.242 621.582 382.706 620.881 383.21 620.209V620.209Z" fill="white"/>
<path opacity="0.8" d="M405.35 492.589C408.945 492.589 411.86 489.674 411.86 486.079C411.86 482.483 408.945 479.569 405.35 479.569C401.755 479.569 398.84 482.483 398.84 486.079C398.84 489.674 401.755 492.589 405.35 492.589Z" fill="#303843"/>
<path opacity="0.8" d="M442.37 505.039C445.965 505.039 448.88 502.124 448.88 498.529C448.88 494.934 445.965 492.019 442.37 492.019C438.775 492.019 435.86 494.934 435.86 498.529C435.86 502.124 438.775 505.039 442.37 505.039Z" fill="#303843"/>
<path opacity="0.2" d="M429.5 177L589.75 452.005L750 727H109L269.25 452.005L429.5 177Z" fill="#218EFB"/>
<path d="M421.756 519.121C423.476 514.011 422.107 508.939 418.698 507.792C415.29 506.645 411.133 509.857 409.413 514.967C407.694 520.077 409.063 525.15 412.472 526.297C415.88 527.444 420.037 524.231 421.756 519.121Z" fill="#475569"/>
<path d="M552.53 497.279C557.92 497.279 562.29 492.909 562.29 487.519C562.29 482.129 557.92 477.759 552.53 477.759C547.14 477.759 542.77 482.129 542.77 487.519C542.77 492.909 547.14 497.279 552.53 497.279Z" fill="white"/>
<path d="M583.45 477.049C586.145 477.049 588.33 474.864 588.33 472.169C588.33 469.474 586.145 467.289 583.45 467.289C580.755 467.289 578.57 469.474 578.57 472.169C578.57 474.864 580.755 477.049 583.45 477.049Z" fill="white"/>
<path opacity="0.05" d="M457 58.429C475.778 58.429 491 55.2949 491 51.429C491 47.563 475.778 44.429 457 44.429C438.222 44.429 423 47.563 423 51.429C423 55.2949 438.222 58.429 457 58.429Z" fill="black"/>
<path opacity="0.05" d="M392 88.429C410.778 88.429 426 85.2949 426 81.429C426 77.563 410.778 74.429 392 74.429C373.222 74.429 358 77.563 358 81.429C358 85.2949 373.222 88.429 392 88.429Z" fill="black"/>
<path opacity="0.05" d="M517 101.429C535.778 101.429 551 98.2949 551 94.429C551 90.563 535.778 87.429 517 87.429C498.222 87.429 483 90.563 483 94.429C483 98.2949 498.222 101.429 517 101.429Z" fill="black"/>
<g opacity="0.5">
<g opacity="0.3">
<path opacity="0.3" d="M482.67 173.219L495 136.629C499.24 123.886 499.274 110.119 495.097 97.3558C490.92 84.5926 482.753 73.509 471.8 65.7388L471.9 65.6788C467.05 62.2644 461.732 59.5699 456.11 57.6788L455.94 57.6188L455.75 57.5589C450.293 55.7132 444.604 54.6428 438.85 54.3788C436.815 54.2738 434.775 54.2738 432.74 54.3788C429.208 54.5637 425.699 55.0488 422.25 55.8288C421.25 56.0488 420.25 56.2988 419.34 56.5688C418.43 56.8388 417.41 57.1288 416.46 57.4388C414.56 58.0688 412.69 58.7788 410.86 59.5888C409.94 59.9888 409.03 60.4088 408.14 60.8588C405.449 62.1876 402.859 63.7117 400.39 65.4189C399.56 65.9889 398.75 66.5788 397.95 67.1788C388.065 74.6958 380.666 85.0077 376.71 96.7789L357.33 154.429C354.28 163.47 353.363 173.094 354.65 182.549C354.85 183.999 355.1 185.439 355.39 186.869C355.68 188.299 356.04 189.709 356.39 191.109C356.66 192.039 356.94 192.969 357.25 193.889C357.71 195.259 358.25 196.629 358.76 197.969C359.13 198.859 359.52 199.749 359.93 200.629C360.74 202.379 361.64 204.089 362.61 205.759C363.575 207.441 364.63 209.07 365.77 210.639C366.61 211.819 367.5 212.979 368.42 214.099C369.66 215.599 370.96 217.049 372.34 218.429C378.313 224.451 385.461 229.179 393.34 232.319V232.319L393.68 232.459C394.103 231.708 394.571 230.984 395.08 230.289C398.08 226.179 403.3 223.289 408.27 224.369C408.63 224.449 408.99 224.559 409.35 224.669C411.87 225.559 414.35 227.149 416.78 227.929C417.664 228.326 418.624 228.526 419.593 228.513C420.562 228.501 421.516 228.278 422.39 227.859C427.25 225.269 425.45 217.099 429.62 213.519C429.814 213.354 430.018 213.2 430.23 213.059C430.171 212.986 430.118 212.909 430.07 212.829C433.29 210.829 437.75 212.159 441.46 213.449C445.46 214.859 450.68 215.809 453.46 212.539C455.34 210.299 455.2 206.889 456.99 204.539C459.07 201.839 462.99 201.539 466.38 202.019H466.55C473.05 204.699 480.15 200.249 479.65 193.239C479.06 183.939 482 175.129 482.67 173.219Z" fill="url(#paint1_linear_605_136)"/>
</g>
<path opacity="0.5" d="M396.21 227.209C399.13 223.209 404.14 220.409 408.94 221.499C413.74 222.589 418.29 227.159 422.56 224.869C428.4 221.749 424.26 210.279 433.74 209.429C435.715 209.298 437.694 209.641 439.51 210.429C443.51 212.059 449.77 213.899 452.85 210.229C454.66 208.069 454.53 204.779 456.26 202.539C458.26 199.939 462.07 199.609 465.32 200.109L465.48 200.159C471.75 202.749 478.61 198.449 478.12 191.689C477.49 182.689 480.35 174.209 480.97 172.369L492.85 137.059C497.903 121.922 496.758 105.4 489.666 91.1041C482.573 76.8086 470.11 65.9022 455 60.7687V60.7687C439.864 55.7222 423.346 56.8714 409.055 63.9655C394.764 71.0595 383.862 83.5215 378.73 98.6287L360 154.159C355.132 168.763 356.025 184.676 362.497 198.643C368.969 212.611 380.531 223.58 394.82 229.309C395.242 228.582 395.706 227.881 396.21 227.209V227.209Z" fill="#F1F5F9"/>
<path opacity="0.2" d="M418.35 99.5888C421.945 99.5888 424.86 96.6742 424.86 93.0788C424.86 89.4835 421.945 86.5688 418.35 86.5688C414.755 86.5688 411.84 89.4835 411.84 93.0788C411.84 96.6742 414.755 99.5888 418.35 99.5888Z" fill="black"/>
<path opacity="0.2" d="M455.37 112.039C458.965 112.039 461.88 109.124 461.88 105.529C461.88 101.933 458.965 99.0188 455.37 99.0188C451.775 99.0188 448.86 101.933 448.86 105.529C448.86 109.124 451.775 112.039 455.37 112.039Z" fill="black"/>
</g>
<path d="M432 105.829C273.82 105.829 145.58 139.339 145.58 180.689H718.42C718.42 139.339 590.18 105.829 432 105.829Z" fill="#475569"/>
<path d="M432 255.539C590.18 255.539 718.42 222.029 718.42 180.689H145.58C145.58 222.029 273.82 255.539 432 255.539Z" fill="#475569"/>
<path opacity="0.5" d="M133.89 57.8089C133.064 57.4484 132.399 56.7971 132.021 55.9787C131.643 55.1603 131.579 54.2316 131.84 53.3689C131.882 53.2357 131.909 53.0981 131.92 52.9589V52.9589C131.946 52.5632 131.842 52.1698 131.626 51.8373C131.41 51.5049 131.092 51.2512 130.72 51.114C130.348 50.9769 129.942 50.9636 129.561 51.0762C129.181 51.1888 128.847 51.4213 128.61 51.7389C128.53 51.851 128.463 51.9717 128.41 52.0989C128.051 52.9265 127.4 53.5931 126.581 53.9712C125.762 54.3493 124.833 54.4126 123.97 54.1489C123.836 54.108 123.699 54.0812 123.56 54.0689C123.164 54.0434 122.771 54.1464 122.438 54.3626C122.106 54.5788 121.852 54.8967 121.715 55.2688C121.578 55.6409 121.565 56.0473 121.677 56.4276C121.79 56.8078 122.022 57.1415 122.34 57.3789V57.3789C122.45 57.4641 122.571 57.5347 122.7 57.5889C123.526 57.9495 124.191 58.6007 124.569 59.4191C124.947 60.2375 125.011 61.1662 124.75 62.0289C124.709 62.159 124.682 62.2931 124.67 62.4289C124.642 62.8255 124.743 63.2206 124.959 63.5548C125.174 63.8891 125.492 64.1446 125.865 64.2831C126.237 64.4216 126.645 64.4356 127.026 64.3231C127.408 64.2106 127.742 63.9776 127.98 63.6589C128.062 63.5446 128.129 63.4203 128.18 63.2889C128.548 62.4704 129.202 61.8149 130.02 61.4464C130.839 61.0779 131.763 61.0219 132.62 61.2889C132.753 61.3298 132.891 61.3566 133.03 61.3689C133.426 61.3944 133.819 61.2914 134.152 61.0752C134.484 60.859 134.738 60.5412 134.875 60.1691C135.012 59.797 135.025 59.3905 134.913 59.0103C134.8 58.63 134.568 58.2963 134.25 58.0589V58.0589C134.142 57.9597 134.021 57.8756 133.89 57.8089V57.8089Z" fill="#475569"/>
<path opacity="0.5" d="M642.89 363.809C642.073 363.44 641.419 362.785 641.051 361.967C640.682 361.149 640.625 360.226 640.89 359.369C640.932 359.236 640.959 359.098 640.97 358.959V358.959C640.996 358.563 640.893 358.17 640.676 357.837C640.46 357.505 640.142 357.251 639.77 357.114C639.398 356.977 638.992 356.964 638.611 357.076C638.231 357.189 637.897 357.421 637.66 357.739C637.58 357.851 637.513 357.972 637.46 358.099C637.101 358.927 636.45 359.593 635.631 359.971C634.812 360.349 633.883 360.413 633.02 360.149C632.887 360.108 632.749 360.081 632.61 360.069V360.069C632.214 360.043 631.821 360.146 631.488 360.363C631.156 360.579 630.902 360.897 630.765 361.269C630.628 361.641 630.615 362.047 630.727 362.428C630.84 362.808 631.072 363.142 631.39 363.379V363.379C631.501 363.464 631.622 363.535 631.75 363.589C632.567 363.958 633.221 364.613 633.589 365.431C633.958 366.248 634.015 367.172 633.75 368.029C633.709 368.159 633.682 368.293 633.67 368.429V368.429C633.642 368.826 633.743 369.221 633.959 369.555C634.174 369.889 634.492 370.145 634.865 370.283C635.237 370.422 635.645 370.436 636.026 370.323C636.408 370.211 636.742 369.978 636.98 369.659V369.659C637.062 369.545 637.129 369.42 637.18 369.289C637.548 368.47 638.202 367.815 639.021 367.446C639.839 367.078 640.763 367.022 641.62 367.289C641.754 367.33 641.891 367.357 642.03 367.369V367.369C642.426 367.394 642.819 367.291 643.152 367.075C643.484 366.859 643.738 366.541 643.875 366.169C644.012 365.797 644.025 365.391 643.913 365.01C643.8 364.63 643.568 364.296 643.25 364.059C643.142 363.96 643.021 363.876 642.89 363.809Z" fill="#475569"/>
<path opacity="0.5" d="M80.89 505.809C80.0638 505.448 79.3987 504.797 79.0208 503.979C78.6429 503.16 78.5786 502.232 78.84 501.369C78.882 501.236 78.9088 501.098 78.92 500.959V500.959C78.9455 500.563 78.8425 500.17 78.6263 499.837C78.4101 499.505 78.0922 499.251 77.7201 499.114C77.348 498.977 76.9416 498.964 76.5614 499.076C76.1811 499.189 75.8474 499.421 75.61 499.739V499.739C75.5299 499.851 75.4628 499.972 75.41 500.099C75.0512 500.927 74.4002 501.593 73.5812 501.971C72.7622 502.349 71.8326 502.413 70.97 502.149C70.8365 502.108 70.6991 502.081 70.56 502.069V502.069C70.1642 502.043 69.7708 502.146 69.4384 502.363C69.1059 502.579 68.8523 502.897 68.7151 503.269C68.578 503.641 68.5647 504.047 68.6773 504.428C68.7899 504.808 69.0223 505.141 69.34 505.379V505.379C69.4504 505.464 69.5714 505.535 69.7 505.589C70.5262 505.949 71.1913 506.601 71.5692 507.419C71.9471 508.238 72.0114 509.166 71.75 510.029C71.709 510.159 71.6821 510.293 71.67 510.429V510.429C71.642 510.826 71.7433 511.221 71.9586 511.555C72.174 511.889 72.4918 512.145 72.8645 512.283C73.2372 512.422 73.6448 512.436 74.0261 512.323C74.4075 512.211 74.7421 511.978 74.98 511.659C75.0622 511.545 75.1294 511.42 75.18 511.289C75.5476 510.47 76.2024 509.815 77.0205 509.446C77.8386 509.078 78.7634 509.022 79.62 509.289C79.7535 509.33 79.8909 509.357 80.03 509.369C80.4257 509.394 80.8191 509.291 81.1516 509.075C81.484 508.859 81.7377 508.541 81.8749 508.169C82.012 507.797 82.0253 507.39 81.9127 507.01C81.8001 506.63 81.5676 506.296 81.25 506.059V506.059C81.1419 505.96 81.0208 505.876 80.89 505.809V505.809Z" fill="#475569"/>
<path opacity="0.5" d="M25.89 174.809C25.073 174.44 24.4189 173.785 24.0506 172.967C23.6824 172.149 23.6252 171.226 23.89 170.369C23.932 170.236 23.9589 170.098 23.97 169.959C23.9956 169.563 23.8925 169.17 23.6763 168.837C23.4601 168.505 23.1423 168.251 22.7702 168.114C22.3981 167.977 21.9916 167.964 21.6114 168.076C21.2311 168.189 20.8975 168.421 20.66 168.739V168.739C20.58 168.851 20.5129 168.972 20.46 169.099C20.1013 169.927 19.4502 170.593 18.6312 170.971C17.8123 171.349 16.8827 171.413 16.02 171.149C15.8865 171.108 15.7491 171.081 15.61 171.069V171.069C15.2143 171.043 14.8209 171.146 14.4884 171.363C14.156 171.579 13.9023 171.897 13.7651 172.269C13.628 172.641 13.6147 173.047 13.7273 173.428C13.84 173.808 14.0724 174.142 14.39 174.379C14.5005 174.464 14.6215 174.535 14.75 174.589C15.5762 174.949 16.2414 175.601 16.6192 176.419C16.9971 177.238 17.0615 178.166 16.8 179.029C16.759 179.159 16.7322 179.293 16.72 179.429C16.6921 179.826 16.7933 180.221 17.0087 180.555C17.224 180.889 17.5418 181.145 17.9146 181.283C18.2873 181.422 18.6948 181.436 19.0762 181.323C19.4576 181.211 19.7922 180.978 20.03 180.659V180.659C20.1122 180.545 20.1794 180.42 20.23 180.289C20.5977 179.47 21.2524 178.815 22.0705 178.446C22.8887 178.078 23.8134 178.022 24.67 178.289C24.8035 178.33 24.941 178.357 25.08 178.369C25.4758 178.394 25.8692 178.291 26.2016 178.075C26.5341 177.859 26.7878 177.541 26.9249 177.169C27.0621 176.797 27.0753 176.391 26.9627 176.01C26.8501 175.63 26.6177 175.296 26.3 175.059V175.059C26.1766 174.956 26.0384 174.871 25.89 174.809V174.809Z" fill="#475569"/>
<path opacity="0.5" d="M632.89 6.80891C632.073 6.43955 631.419 5.78458 631.051 4.96703C630.682 4.14948 630.625 3.2256 630.89 2.36892C630.932 2.23569 630.959 2.09815 630.97 1.95891V1.95891C630.995 1.56317 630.892 1.16976 630.676 0.837315C630.46 0.504869 630.142 0.251174 629.77 0.114026C629.398 -0.0231227 628.992 -0.0363817 628.611 0.0762219C628.231 0.188826 627.897 0.421264 627.66 0.738911V0.738911C627.58 0.850948 627.513 0.971724 627.46 1.09891C627.092 1.91741 626.438 2.57287 625.619 2.94139C624.801 3.3099 623.877 3.36594 623.02 3.09891C622.886 3.05801 622.749 3.03119 622.61 3.01891V3.01891C622.179 2.92849 621.73 2.99568 621.344 3.20829C620.958 3.42089 620.662 3.7648 620.508 4.17753C620.354 4.59027 620.354 5.04445 620.506 5.45757C620.659 5.87069 620.955 6.21534 621.34 6.42891V6.42891C621.45 6.51414 621.571 6.58473 621.7 6.63891C622.517 7.00827 623.171 7.66324 623.539 8.48079C623.908 9.29835 623.965 10.2222 623.7 11.0789C623.659 11.209 623.632 11.3431 623.62 11.4789V11.4789C623.578 11.8907 623.676 12.3047 623.898 12.654C624.12 13.0033 624.453 13.2675 624.844 13.404C625.235 13.5404 625.66 13.5411 626.051 13.4059C626.443 13.2707 626.777 13.0075 627 12.6589V12.6589C627.082 12.5446 627.149 12.4203 627.2 12.2889C627.568 11.4704 628.222 10.815 629.04 10.4464C629.859 10.0779 630.783 10.0219 631.64 10.2889C631.773 10.3298 631.911 10.3566 632.05 10.3689V10.3689C632.446 10.3944 632.839 10.2914 633.172 10.0752C633.504 9.859 633.758 9.54117 633.895 9.16907C634.032 8.79697 634.045 8.39052 633.933 8.01027C633.82 7.63003 633.588 7.29633 633.27 7.05891V7.05891C633.156 6.95815 633.028 6.87399 632.89 6.80891V6.80891Z" fill="#475569"/>
<g opacity="0.5">
<path opacity="0.5" d="M107.093 257.849H104.065V274.849H107.093V257.849Z" fill="#475569"/>
<path opacity="0.5" d="M114.158 267.849V264.849H97V267.849H114.158Z" fill="#475569"/>
</g>
<g opacity="0.5">
<path opacity="0.5" d="M833 177.849H830V194.849H833V177.849Z" fill="#475569"/>
<path opacity="0.5" d="M840 187.849V184.849H823V187.849H840Z" fill="#475569"/>
</g>
<g opacity="0.5">
<path opacity="0.5" d="M733 456.849H730V473.849H733V456.849Z" fill="#475569"/>
<path opacity="0.5" d="M740 466.849V463.849H723V466.849H740Z" fill="#475569"/>
</g>
<path opacity="0.5" d="M723 87.8489C726.314 87.8489 729 85.1626 729 81.8489C729 78.5352 726.314 75.8489 723 75.8489C719.686 75.8489 717 78.5352 717 81.8489C717 85.1626 719.686 87.8489 723 87.8489Z" fill="#475569"/>
<path opacity="0.5" d="M6 18.8489C9.31371 18.8489 12 16.1626 12 12.8489C12 9.53517 9.31371 6.84888 6 6.84888C2.68629 6.84888 0 9.53517 0 12.8489C0 16.1626 2.68629 18.8489 6 18.8489Z" fill="#475569"/>
<path opacity="0.5" d="M186 363.849C189.314 363.849 192 361.163 192 357.849C192 354.535 189.314 351.849 186 351.849C182.686 351.849 180 354.535 180 357.849C180 361.163 182.686 363.849 186 363.849Z" fill="#475569"/>
<path opacity="0.5" d="M234 161.429C252.778 161.429 268 158.295 268 154.429C268 150.563 252.778 147.429 234 147.429C215.222 147.429 200 150.563 200 154.429C200 158.295 215.222 161.429 234 161.429Z" fill="#717F98"/>
<path opacity="0.5" d="M234 214.429C252.778 214.429 268 211.295 268 207.429C268 203.563 252.778 200.429 234 200.429C215.222 200.429 200 203.563 200 207.429C200 211.295 215.222 214.429 234 214.429Z" fill="#717F98"/>
<path opacity="0.5" d="M621 161.429C639.778 161.429 655 158.295 655 154.429C655 150.563 639.778 147.429 621 147.429C602.222 147.429 587 150.563 587 154.429C587 158.295 602.222 161.429 621 161.429Z" fill="#717F98"/>
<path opacity="0.5" d="M621 214.429C639.778 214.429 655 211.295 655 207.429C655 203.563 639.778 200.429 621 200.429C602.222 200.429 587 203.563 587 207.429C587 211.295 602.222 214.429 621 214.429Z" fill="#717F98"/>
<path opacity="0.05" d="M432 131.429C450.778 131.429 466 128.295 466 124.429C466 120.563 450.778 117.429 432 117.429C413.222 117.429 398 120.563 398 124.429C398 128.295 413.222 131.429 432 131.429Z" fill="#475569"/>
<path opacity="0.05" d="M432 235.429C450.778 235.429 466 232.295 466 228.429C466 224.563 450.778 221.429 432 221.429C413.222 221.429 398 224.563 398 228.429C398 232.295 413.222 235.429 432 235.429Z" fill="#475569"/>
</g>
<defs>
<linearGradient id="paint0_linear_605_136" x1="432" y1="245.769" x2="432" y2="18.8489" gradientUnits="userSpaceOnUse">
<stop stop-color="#808080" stop-opacity="0.251"/>
<stop offset="0.54" stop-color="#808080" stop-opacity="0.122"/>
<stop offset="1" stop-color="#808080" stop-opacity="0.102"/>
</linearGradient>
<linearGradient id="paint1_linear_605_136" x1="154.333" y1="1452.85" x2="154.333" y2="1267.38" gradientUnits="userSpaceOnUse">
<stop stop-color="#808080" stop-opacity="0.251"/>
<stop offset="0.54" stop-color="#808080" stop-opacity="0.122"/>
<stop offset="1" stop-color="#808080" stop-opacity="0.102"/>
</linearGradient>
<clipPath id="clip0_605_136">
<rect width="840" height="726.849" fill="white"/>
</clipPath>
</defs>
</svg>
