<svg width="712" height="223" viewBox="0 0 712 223" fill="none" xmlns="http://www.w3.org/2000/svg">
<path d="M4.65 134C4.65 127.5 5.8 121.15 8.1 114.95C10.5 108.65 13.95 102.95 18.45 97.85C22.95 92.65 28.45 88.55 34.95 85.55C41.45 82.45 48.85 80.9 57.15 80.9C66.95 80.9 75.4 83.05 82.5 87.35C89.7 91.65 95.05 97.25 98.55 104.15L82.65 115.1C80.85 111.1 78.5 107.95 75.6 105.65C72.7 103.25 69.6 101.6 66.3 100.7C63 99.7 59.75 99.2 56.55 99.2C51.35 99.2 46.8 100.25 42.9 102.35C39.1 104.45 35.9 107.2 33.3 110.6C30.7 114 28.75 117.8 27.45 122C26.25 126.2 25.65 130.4 25.65 134.6C25.65 139.3 26.4 143.85 27.9 148.25C29.4 152.55 31.5 156.4 34.2 159.8C37 163.1 40.3 165.75 44.1 167.75C48 169.65 52.25 170.6 56.85 170.6C60.15 170.6 63.5 170.05 66.9 168.95C70.3 167.85 73.45 166.1 76.35 163.7C79.25 161.3 81.5 158.2 83.1 154.4L100.05 164.15C97.95 169.45 94.5 173.95 89.7 177.65C85 181.35 79.7 184.15 73.8 186.05C67.9 187.95 62.05 188.9 56.25 188.9C48.65 188.9 41.7 187.35 35.4 184.25C29.1 181.05 23.65 176.85 19.05 171.65C14.55 166.35 11 160.45 8.4 153.95C5.9 147.35 4.65 140.7 4.65 134ZM111.832 78.5H131.932V162.8C131.932 166.4 132.532 168.85 133.732 170.15C134.932 171.35 136.582 171.95 138.682 171.95C140.282 171.95 141.932 171.75 143.632 171.35C145.332 170.95 146.832 170.45 148.132 169.85L150.832 185.15C148.132 186.45 144.982 187.45 141.382 188.15C137.782 188.85 134.532 189.2 131.632 189.2C125.332 189.2 120.432 187.55 116.932 184.25C113.532 180.85 111.832 176.05 111.832 169.85V78.5ZM195.889 189.5C189.489 189.5 183.739 188.45 178.639 186.35C173.539 184.15 169.189 181.15 165.589 177.35C162.089 173.55 159.389 169.2 157.489 164.3C155.589 159.4 154.639 154.25 154.639 148.85C154.639 143.35 155.589 138.15 157.489 133.25C159.389 128.35 162.089 124 165.589 120.2C169.189 116.4 173.539 113.45 178.639 111.35C183.739 109.15 189.489 108.05 195.889 108.05C202.289 108.05 207.989 109.15 212.989 111.35C218.089 113.45 222.439 116.4 226.039 120.2C229.639 124 232.339 128.35 234.139 133.25C236.039 138.15 236.989 143.35 236.989 148.85C236.989 154.25 236.039 159.4 234.139 164.3C232.339 169.2 229.639 173.55 226.039 177.35C222.539 181.15 218.239 184.15 213.139 186.35C208.039 188.45 202.289 189.5 195.889 189.5ZM175.339 148.85C175.339 153.45 176.239 157.55 178.039 161.15C179.839 164.65 182.289 167.4 185.389 169.4C188.489 171.4 191.989 172.4 195.889 172.4C199.689 172.4 203.139 171.4 206.239 169.4C209.339 167.3 211.789 164.5 213.589 161C215.489 157.4 216.439 153.3 216.439 148.7C216.439 144.2 215.489 140.15 213.589 136.55C211.789 132.95 209.339 130.15 206.239 128.15C203.139 126.15 199.689 125.15 195.889 125.15C191.989 125.15 188.489 126.2 185.389 128.3C182.289 130.3 179.839 133.1 178.039 136.7C176.239 140.2 175.339 144.25 175.339 148.85ZM249.806 158.6V109.4H269.906V154.25C269.906 160.25 271.006 164.8 273.206 167.9C275.406 170.9 278.656 172.4 282.956 172.4C285.556 172.4 288.106 171.9 290.606 170.9C293.206 169.8 295.556 168.2 297.656 166.1C299.856 164 301.706 161.35 303.206 158.15V109.4H323.306V165.5C323.306 167.6 323.656 169.1 324.356 170C325.156 170.9 326.406 171.45 328.106 171.65V188C326.106 188.3 324.406 188.5 323.006 188.6C321.706 188.8 320.506 188.9 319.406 188.9C315.806 188.9 312.856 188.1 310.556 186.5C308.356 184.8 307.056 182.5 306.656 179.6L306.206 173.3C302.706 178.6 298.206 182.65 292.706 185.45C287.206 188.15 281.156 189.5 274.556 189.5C266.456 189.5 260.306 186.9 256.106 181.7C251.906 176.4 249.806 168.7 249.806 158.6ZM338.481 148.7C338.481 141.1 339.981 134.25 342.981 128.15C345.981 121.95 350.131 117.05 355.431 113.45C360.731 109.85 366.781 108.05 373.581 108.05C379.381 108.05 384.581 109.5 389.181 112.4C393.881 115.2 397.531 118.8 400.131 123.2V78.5H420.231V165.5C420.231 167.6 420.581 169.1 421.281 170C421.981 170.9 423.181 171.45 424.881 171.65V188C421.381 188.7 418.531 189.05 416.331 189.05C412.731 189.05 409.731 188.15 407.331 186.35C405.031 184.55 403.731 182.2 403.431 179.3L403.131 174.35C400.231 179.25 396.281 183 391.281 185.6C386.381 188.2 381.231 189.5 375.831 189.5C370.431 189.5 365.431 188.45 360.831 186.35C356.331 184.25 352.381 181.35 348.981 177.65C345.681 173.95 343.081 169.65 341.181 164.75C339.381 159.75 338.481 154.4 338.481 148.7ZM400.131 159.2V140.45C399.131 137.55 397.531 134.95 395.331 132.65C393.131 130.35 390.681 128.55 387.981 127.25C385.281 125.85 382.581 125.15 379.881 125.15C376.781 125.15 373.981 125.8 371.481 127.1C368.981 128.4 366.781 130.15 364.881 132.35C363.081 134.55 361.681 137.1 360.681 140C359.781 142.9 359.331 145.95 359.331 149.15C359.331 152.35 359.831 155.4 360.831 158.3C361.931 161.1 363.481 163.55 365.481 165.65C367.481 167.75 369.781 169.4 372.381 170.6C375.081 171.8 377.981 172.4 381.081 172.4C382.981 172.4 384.881 172.1 386.781 171.5C388.781 170.8 390.631 169.9 392.331 168.8C394.131 167.6 395.681 166.2 396.981 164.6C398.381 162.9 399.431 161.1 400.131 159.2ZM486.189 188.75C478.389 188.75 471.289 187.25 464.889 184.25C458.589 181.25 453.139 177.2 448.539 172.1C444.039 166.9 440.539 161.1 438.039 154.7C435.539 148.2 434.289 141.55 434.289 134.75C434.289 127.65 435.589 120.9 438.189 114.5C440.889 108 444.539 102.25 449.139 97.25C453.839 92.15 459.339 88.15 465.639 85.25C472.039 82.25 479.039 80.75 486.639 80.75C494.339 80.75 501.339 82.3 507.639 85.4C514.039 88.5 519.489 92.65 523.989 97.85C528.489 103.05 531.989 108.85 534.489 115.25C536.989 121.65 538.239 128.25 538.239 135.05C538.239 142.05 536.939 148.8 534.339 155.3C531.739 161.7 528.089 167.45 523.389 172.55C518.789 177.55 513.289 181.5 506.889 184.4C500.589 187.3 493.689 188.75 486.189 188.75ZM455.289 134.75C455.289 139.35 455.989 143.8 457.389 148.1C458.789 152.4 460.789 156.25 463.389 159.65C466.089 162.95 469.339 165.6 473.139 167.6C477.039 169.5 481.439 170.45 486.339 170.45C491.339 170.45 495.789 169.45 499.689 167.45C503.589 165.35 506.839 162.6 509.439 159.2C512.039 155.7 513.989 151.85 515.289 147.65C516.689 143.35 517.389 139.05 517.389 134.75C517.389 130.15 516.639 125.75 515.139 121.55C513.739 117.25 511.689 113.45 508.989 110.15C506.389 106.75 503.139 104.1 499.239 102.2C495.439 100.2 491.139 99.2 486.339 99.2C481.239 99.2 476.739 100.25 472.839 102.35C469.039 104.35 465.839 107.05 463.239 110.45C460.639 113.85 458.639 117.65 457.239 121.85C455.939 126.05 455.289 130.35 455.289 134.75ZM598.535 189.5C592.435 189.5 587.035 188.15 582.335 185.45C577.735 182.65 574.135 178.9 571.535 174.2V219.95H551.435V109.4H568.985V122.9C571.985 118.3 575.785 114.7 580.385 112.1C584.985 109.4 590.235 108.05 596.135 108.05C601.435 108.05 606.285 109.1 610.685 111.2C615.185 113.3 619.085 116.25 622.385 120.05C625.685 123.75 628.235 128.05 630.035 132.95C631.935 137.75 632.885 142.95 632.885 148.55C632.885 156.15 631.385 163.05 628.385 169.25C625.485 175.45 621.435 180.4 616.235 184.1C611.135 187.7 605.235 189.5 598.535 189.5ZM591.785 172.4C594.885 172.4 597.685 171.75 600.185 170.45C602.685 169.15 604.835 167.4 606.635 165.2C608.535 162.9 609.935 160.35 610.835 157.55C611.835 154.65 612.335 151.65 612.335 148.55C612.335 145.25 611.785 142.2 610.685 139.4C609.685 136.6 608.185 134.15 606.185 132.05C604.185 129.85 601.835 128.15 599.135 126.95C596.535 125.75 593.685 125.15 590.585 125.15C588.685 125.15 586.735 125.5 584.735 126.2C582.835 126.8 580.985 127.7 579.185 128.9C577.385 130.1 575.785 131.5 574.385 133.1C573.085 134.7 572.135 136.45 571.535 138.35V156.8C572.735 159.7 574.335 162.35 576.335 164.75C578.435 167.15 580.835 169.05 583.535 170.45C586.235 171.75 588.985 172.4 591.785 172.4ZM675.454 189.5C668.754 189.5 662.354 188.4 656.254 186.2C650.154 184 644.904 180.75 640.504 176.45L647.704 163.4C652.404 167.2 657.004 170 661.504 171.8C666.104 173.6 670.504 174.5 674.704 174.5C678.604 174.5 681.704 173.8 684.004 172.4C686.404 171 687.604 168.9 687.604 166.1C687.604 164.2 686.954 162.75 685.654 161.75C684.354 160.65 682.454 159.7 679.954 158.9C677.554 158.1 674.604 157.2 671.104 156.2C665.304 154.3 660.454 152.45 656.554 150.65C652.654 148.85 649.704 146.6 647.704 143.9C645.804 141.1 644.854 137.55 644.854 133.25C644.854 128.05 646.154 123.6 648.754 119.9C651.454 116.1 655.154 113.15 659.854 111.05C664.654 108.95 670.254 107.9 676.654 107.9C682.254 107.9 687.554 108.8 692.554 110.6C697.554 112.3 702.104 115.1 706.204 119L698.104 131.75C694.104 128.65 690.304 126.4 686.704 125C683.104 123.5 679.454 122.75 675.754 122.75C673.654 122.75 671.654 123 669.754 123.5C667.954 124 666.454 124.85 665.254 126.05C664.154 127.15 663.604 128.75 663.604 130.85C663.604 132.75 664.104 134.25 665.104 135.35C666.204 136.35 667.804 137.25 669.904 138.05C672.104 138.85 674.754 139.75 677.854 140.75C684.154 142.55 689.454 144.4 693.754 146.3C698.154 148.2 701.454 150.55 703.654 153.35C705.854 156.05 706.954 159.8 706.954 164.6C706.954 172.4 704.104 178.5 698.404 182.9C692.704 187.3 685.054 189.5 675.454 189.5Z" fill="black"/>
<path d="M173.32 75.8C169.747 75.8 166.333 75.2133 163.08 74.04C159.827 72.8667 157.027 71.1333 154.68 68.84L158.52 61.88C161.027 63.9067 163.48 65.4 165.88 66.36C168.333 67.32 170.68 67.8 172.92 67.8C175 67.8 176.653 67.4267 177.88 66.68C179.16 65.9333 179.8 64.8133 179.8 63.32C179.8 62.3067 179.453 61.5333 178.76 61C178.067 60.4133 177.053 59.9067 175.72 59.48C174.44 59.0533 172.867 58.5733 171 58.04C167.907 57.0267 165.32 56.04 163.24 55.08C161.16 54.12 159.587 52.92 158.52 51.48C157.507 49.9867 157 48.0933 157 45.8C157 43.0267 157.693 40.6533 159.08 38.68C160.52 36.6533 162.493 35.08 165 33.96C167.56 32.84 170.547 32.28 173.96 32.28C176.947 32.28 179.773 32.76 182.44 33.72C185.107 34.6267 187.533 36.12 189.72 38.2L185.4 45C183.267 43.3467 181.24 42.1467 179.32 41.4C177.4 40.6 175.453 40.2 173.48 40.2C172.36 40.2 171.293 40.3333 170.28 40.6C169.32 40.8667 168.52 41.32 167.88 41.96C167.293 42.5467 167 43.4 167 44.52C167 45.5333 167.267 46.3333 167.8 46.92C168.387 47.4533 169.24 47.9333 170.36 48.36C171.533 48.7867 172.947 49.2667 174.6 49.8C177.96 50.76 180.787 51.7467 183.08 52.76C185.427 53.7733 187.187 55.0267 188.36 56.52C189.533 57.96 190.12 59.96 190.12 62.52C190.12 66.68 188.6 69.9333 185.56 72.28C182.52 74.6267 178.44 75.8 173.32 75.8ZM262.531 75H251.811V51.48C251.811 48.1733 251.225 45.7467 250.051 44.2C248.931 42.6 247.358 41.8 245.331 41.8C243.251 41.8 241.251 42.6267 239.331 44.28C237.465 45.88 236.131 47.9867 235.331 50.6V75H224.611V51.48C224.611 48.12 224.025 45.6667 222.851 44.12C221.731 42.5733 220.158 41.8 218.131 41.8C216.051 41.8 214.051 42.6 212.131 44.2C210.265 45.8 208.931 47.9067 208.131 50.52V75H197.411V33.08H207.091V40.84C208.691 38.12 210.825 36.04 213.491 34.6C216.158 33.1067 219.225 32.36 222.691 32.36C226.158 32.36 228.851 33.2133 230.771 34.92C232.745 36.6267 233.998 38.7333 234.531 41.24C236.238 38.36 238.398 36.1733 241.011 34.68C243.678 33.1333 246.665 32.36 249.971 32.36C252.585 32.36 254.691 32.84 256.291 33.8C257.945 34.7067 259.225 35.96 260.131 37.56C261.038 39.1067 261.651 40.8667 261.971 42.84C262.345 44.8133 262.531 46.8133 262.531 48.84V75ZM268.984 62.6C268.984 59.88 269.731 57.5067 271.224 55.48C272.771 53.4 274.904 51.8 277.624 50.68C280.344 49.56 283.464 49 286.984 49C288.744 49 290.531 49.1333 292.344 49.4C294.158 49.6667 295.731 50.0933 297.064 50.68V48.44C297.064 45.7733 296.264 43.72 294.664 42.28C293.118 40.84 290.798 40.12 287.704 40.12C285.411 40.12 283.224 40.52 281.144 41.32C279.064 42.12 276.878 43.2933 274.584 44.84L271.144 37.8C273.918 35.9867 276.744 34.6267 279.624 33.72C282.558 32.8133 285.624 32.36 288.824 32.36C294.798 32.36 299.438 33.8533 302.744 36.84C306.104 39.8267 307.784 44.0933 307.784 49.64V63C307.784 64.12 307.971 64.92 308.344 65.4C308.771 65.88 309.438 66.1733 310.344 66.28V75C309.384 75.16 308.504 75.2933 307.704 75.4C306.958 75.5067 306.318 75.56 305.784 75.56C303.651 75.56 302.024 75.08 300.904 74.12C299.838 73.16 299.171 71.9867 298.904 70.6L298.664 68.44C296.851 70.7867 294.584 72.6 291.864 73.88C289.144 75.16 286.371 75.8 283.544 75.8C280.771 75.8 278.264 75.24 276.024 74.12C273.838 72.9467 272.104 71.3733 270.824 69.4C269.598 67.3733 268.984 65.1067 268.984 62.6ZM295.064 64.76C295.651 64.12 296.131 63.48 296.504 62.84C296.878 62.2 297.064 61.6133 297.064 61.08V56.84C295.784 56.3067 294.398 55.9067 292.904 55.64C291.411 55.32 289.998 55.16 288.664 55.16C285.891 55.16 283.598 55.7733 281.784 57C280.024 58.1733 279.144 59.7467 279.144 61.72C279.144 62.7867 279.438 63.8 280.024 64.76C280.611 65.72 281.464 66.4933 282.584 67.08C283.704 67.6667 285.038 67.96 286.584 67.96C288.184 67.96 289.758 67.6667 291.304 67.08C292.851 66.44 294.104 65.6667 295.064 64.76ZM342.762 42.36C339.509 42.36 336.602 43 334.042 44.28C331.482 45.5067 329.642 47.2933 328.522 49.64V75H317.802V33.08H327.642V42.04C329.135 39.16 331.029 36.8933 333.322 35.24C335.615 33.5867 338.042 32.68 340.602 32.52C341.189 32.52 341.642 32.52 341.962 32.52C342.282 32.52 342.549 32.5467 342.762 32.6V42.36ZM373.859 72.84C372.953 73.2133 371.859 73.64 370.579 74.12C369.299 74.6 367.913 74.9733 366.419 75.24C364.979 75.56 363.513 75.72 362.019 75.72C360.046 75.72 358.233 75.3733 356.579 74.68C354.926 73.9867 353.593 72.8933 352.579 71.4C351.619 69.8533 351.139 67.8533 351.139 65.4V41.32H345.619V33.08H351.139V19.48H361.859V33.08H370.659V41.32H361.859V61.8C361.913 63.24 362.313 64.28 363.059 64.92C363.806 65.56 364.739 65.88 365.859 65.88C366.979 65.88 368.073 65.6933 369.139 65.32C370.206 64.9467 371.059 64.6267 371.699 64.36L373.859 72.84Z" fill="#3A57C7"/>
<circle cx="486" cy="135" r="25" fill="#3A57C7"/>
</svg>
