<svg width="788" height="205" viewBox="0 0 788 205" fill="none" xmlns="http://www.w3.org/2000/svg">
<path d="M200.5 36.6H218.5V150H200.5V36.6ZM235.565 114C235.565 108.3 236.565 103.15 238.565 98.55C240.665 93.85 243.465 89.85 246.965 86.55C250.465 83.25 254.615 80.7 259.415 78.9C264.215 77.1 269.315 76.2 274.715 76.2C280.115 76.2 285.215 77.1 290.015 78.9C294.815 80.7 298.965 83.25 302.465 86.55C305.965 89.85 308.715 93.85 310.715 98.55C312.815 103.15 313.865 108.3 313.865 114C313.865 119.7 312.815 124.9 310.715 129.6C308.715 134.2 305.965 138.15 302.465 141.45C298.965 144.75 294.815 147.3 290.015 149.1C285.215 150.9 280.115 151.8 274.715 151.8C269.315 151.8 264.215 150.9 259.415 149.1C254.615 147.3 250.465 144.75 246.965 141.45C243.465 138.15 240.665 134.2 238.565 129.6C236.565 124.9 235.565 119.7 235.565 114ZM253.565 114C253.565 116.8 254.015 119.5 254.915 122.1C255.915 124.7 257.315 127 259.115 129C261.015 131 263.265 132.6 265.865 133.8C268.465 135 271.415 135.6 274.715 135.6C278.015 135.6 280.965 135 283.565 133.8C286.165 132.6 288.365 131 290.165 129C292.065 127 293.465 124.7 294.365 122.1C295.365 119.5 295.865 116.8 295.865 114C295.865 111.2 295.365 108.5 294.365 105.9C293.465 103.3 292.065 101 290.165 99C288.365 97 286.165 95.4 283.565 94.2C280.965 93 278.015 92.4 274.715 92.4C271.415 92.4 268.465 93 265.865 94.2C263.265 95.4 261.015 97 259.115 99C257.315 101 255.915 103.3 254.915 105.9C254.015 108.5 253.565 111.2 253.565 114ZM396.418 150H379.318V138.45H379.018C377.318 142.05 374.718 145.2 371.218 147.9C367.718 150.5 362.968 151.8 356.968 151.8C352.168 151.8 348.068 151.05 344.668 149.55C341.368 147.95 338.668 145.85 336.568 143.25C334.468 140.55 332.968 137.5 332.068 134.1C331.168 130.7 330.718 127.15 330.718 123.45V78H348.718V114.45C348.718 116.45 348.818 118.7 349.018 121.2C349.218 123.6 349.718 125.9 350.518 128.1C351.418 130.2 352.718 132 354.418 133.5C356.218 134.9 358.718 135.6 361.918 135.6C364.918 135.6 367.418 135.1 369.418 134.1C371.518 133.1 373.218 131.75 374.518 130.05C375.918 128.35 376.918 126.4 377.518 124.2C378.118 122 378.418 119.7 378.418 117.3V78H396.418V150ZM473.85 139.2H473.55C470.95 143.6 467.45 146.8 463.05 148.8C458.65 150.8 453.9 151.8 448.8 151.8C443.2 151.8 438.2 150.85 433.8 148.95C429.5 146.95 425.8 144.25 422.7 140.85C419.6 137.45 417.25 133.45 415.65 128.85C414.05 124.25 413.25 119.3 413.25 114C413.25 108.7 414.1 103.75 415.8 99.15C417.5 94.55 419.85 90.55 422.85 87.15C425.95 83.75 429.65 81.1 433.95 79.2C438.25 77.2 442.95 76.2 448.05 76.2C451.45 76.2 454.45 76.55 457.05 77.25C459.65 77.95 461.95 78.85 463.95 79.95C465.95 81.05 467.65 82.25 469.05 83.55C470.45 84.75 471.6 85.95 472.5 87.15H472.95V36.6H490.95V150H473.85V139.2ZM431.25 114C431.25 116.8 431.7 119.5 432.6 122.1C433.6 124.7 435 127 436.8 129C438.7 131 440.95 132.6 443.55 133.8C446.15 135 449.1 135.6 452.4 135.6C455.7 135.6 458.65 135 461.25 133.8C463.85 132.6 466.05 131 467.85 129C469.75 127 471.15 124.7 472.05 122.1C473.05 119.5 473.55 116.8 473.55 114C473.55 111.2 473.05 108.5 472.05 105.9C471.15 103.3 469.75 101 467.85 99C466.05 97 463.85 95.4 461.25 94.2C458.65 93 455.7 92.4 452.4 92.4C449.1 92.4 446.15 93 443.55 94.2C440.95 95.4 438.7 97 436.8 99C435 101 433.6 103.3 432.6 105.9C431.7 108.5 431.25 111.2 431.25 114ZM507.283 97.35C507.283 88.85 508.683 81.15 511.483 74.25C514.283 67.25 518.133 61.3 523.033 56.4C528.033 51.5 533.933 47.75 540.733 45.15C547.633 42.45 555.183 41.1 563.383 41.1C571.683 41 579.283 42.25 586.183 44.85C593.083 47.35 599.033 51.05 604.033 55.95C609.033 60.85 612.933 66.75 615.733 73.65C618.533 80.55 619.933 88.25 619.933 96.75C619.933 105.05 618.533 112.6 615.733 119.4C612.933 126.2 609.033 132.05 604.033 136.95C599.033 141.85 593.083 145.7 586.183 148.5C579.283 151.2 571.683 152.6 563.383 152.7C555.183 152.7 547.633 151.4 540.733 148.8C533.933 146.1 528.033 142.35 523.033 137.55C518.133 132.65 514.283 126.8 511.483 120C508.683 113.2 507.283 105.65 507.283 97.35ZM527.083 96.15C527.083 101.85 527.933 107.1 529.633 111.9C531.433 116.7 533.933 120.85 537.133 124.35C540.333 127.85 544.133 130.6 548.533 132.6C553.033 134.6 558.033 135.6 563.533 135.6C569.033 135.6 574.033 134.6 578.533 132.6C583.033 130.6 586.883 127.85 590.083 124.35C593.283 120.85 595.733 116.7 597.433 111.9C599.233 107.1 600.133 101.85 600.133 96.15C600.133 90.85 599.233 85.9 597.433 81.3C595.733 76.7 593.283 72.7 590.083 69.3C586.883 65.8 583.033 63.1 578.533 61.2C574.033 59.2 569.033 58.2 563.533 58.2C558.033 58.2 553.033 59.2 548.533 61.2C544.133 63.1 540.333 65.8 537.133 69.3C533.933 72.7 531.433 76.7 529.633 81.3C527.933 85.9 527.083 90.85 527.083 96.15ZM636.284 78H653.384V88.8H653.684C656.284 84.4 659.784 81.2 664.184 79.2C668.584 77.2 673.334 76.2 678.434 76.2C683.934 76.2 688.884 77.2 693.284 79.2C697.684 81.1 701.434 83.75 704.534 87.15C707.634 90.55 709.984 94.55 711.584 99.15C713.184 103.75 713.984 108.7 713.984 114C713.984 119.3 713.134 124.25 711.434 128.85C709.734 133.45 707.334 137.45 704.234 140.85C701.234 144.25 697.584 146.95 693.284 148.95C688.984 150.85 684.284 151.8 679.184 151.8C675.784 151.8 672.784 151.45 670.184 150.75C667.584 150.05 665.284 149.15 663.284 148.05C661.284 146.95 659.584 145.8 658.184 144.6C656.784 143.3 655.634 142.05 654.734 140.85H654.284V184.2H636.284V78ZM695.984 114C695.984 111.2 695.484 108.5 694.484 105.9C693.584 103.3 692.184 101 690.284 99C688.484 97 686.284 95.4 683.684 94.2C681.084 93 678.134 92.4 674.834 92.4C671.534 92.4 668.584 93 665.984 94.2C663.384 95.4 661.134 97 659.234 99C657.434 101 656.034 103.3 655.034 105.9C654.134 108.5 653.684 111.2 653.684 114C653.684 116.8 654.134 119.5 655.034 122.1C656.034 124.7 657.434 127 659.234 129C661.134 131 663.384 132.6 665.984 133.8C668.584 135 671.534 135.6 674.834 135.6C678.134 135.6 681.084 135 683.684 133.8C686.284 132.6 688.484 131 690.284 129C692.184 127 693.584 124.7 694.484 122.1C695.484 119.5 695.984 116.8 695.984 114ZM769.166 97.95C765.666 93.05 760.966 90.6 755.066 90.6C752.666 90.6 750.316 91.2 748.016 92.4C745.716 93.6 744.566 95.55 744.566 98.25C744.566 100.45 745.516 102.05 747.416 103.05C749.316 104.05 751.716 104.9 754.616 105.6C757.516 106.3 760.616 107.05 763.916 107.85C767.316 108.55 770.466 109.7 773.366 111.3C776.266 112.8 778.666 114.9 780.566 117.6C782.466 120.3 783.416 124 783.416 128.7C783.416 133 782.466 136.65 780.566 139.65C778.766 142.55 776.366 144.9 773.366 146.7C770.466 148.5 767.166 149.8 763.466 150.6C759.766 151.4 756.066 151.8 752.366 151.8C746.766 151.8 741.616 151 736.916 149.4C732.216 147.8 728.016 144.9 724.316 140.7L736.316 129.45C738.616 132.05 741.066 134.2 743.666 135.9C746.366 137.5 749.616 138.3 753.416 138.3C754.716 138.3 756.066 138.15 757.466 137.85C758.866 137.55 760.166 137.05 761.366 136.35C762.566 135.65 763.516 134.8 764.216 133.8C765.016 132.7 765.416 131.45 765.416 130.05C765.416 127.55 764.466 125.7 762.566 124.5C760.666 123.3 758.266 122.35 755.366 121.65C752.466 120.85 749.316 120.15 745.916 119.55C742.616 118.85 739.516 117.8 736.616 116.4C733.716 114.9 731.316 112.85 729.416 110.25C727.516 107.65 726.566 104.05 726.566 99.45C726.566 95.45 727.366 92 728.966 89.1C730.666 86.1 732.866 83.65 735.566 81.75C738.266 79.85 741.366 78.45 744.866 77.55C748.366 76.65 751.916 76.2 755.516 76.2C760.316 76.2 765.066 77.05 769.766 78.75C774.466 80.35 778.266 83.15 781.166 87.15L769.166 97.95Z" fill="white"/>
<path d="M184.305 53.1949C173.616 42.5053 159.117 36.5 144 36.5C128.883 36.5 114.384 42.5053 103.695 53.1949L118.947 68.4472C125.592 61.8028 134.603 58.0701 144 58.0701C153.397 58.0701 162.408 61.8028 169.053 68.4472L184.305 53.1949Z" fill="white"/>
<path d="M103.695 53.1949C93.0053 63.8845 87 78.3827 87 93.5C87 108.617 93.0053 123.116 103.695 133.805L118.947 118.553C112.303 111.908 108.57 102.897 108.57 93.5C108.57 84.1034 112.303 75.0916 118.947 68.4472L103.695 53.1949Z" fill="white"/>
<mask id="path-4-outside-1_584_159" maskUnits="userSpaceOnUse" x="0" y="68" width="168" height="52" fill="black">
<rect fill="white" y="68" width="168" height="52"/>
<path d="M21.7567 113C19.3112 113 16.9752 112.604 14.7487 111.813C12.5222 111.021 10.606 109.851 9 108.304L11.628 103.608C13.3435 104.975 15.0225 105.983 16.665 106.631C18.3439 107.278 19.9499 107.602 21.4829 107.602C22.9064 107.602 24.0379 107.35 24.8774 106.847C25.7534 106.343 26.1914 105.587 26.1914 104.58C26.1914 103.896 25.9541 103.374 25.4797 103.014C25.0052 102.618 24.3117 102.277 23.3992 101.989C22.5232 101.701 21.4464 101.377 20.1689 101.017C18.0519 100.333 16.2817 99.6676 14.8582 99.0199C13.4347 98.3722 12.358 97.5625 11.628 96.5909C10.9345 95.5833 10.5877 94.3059 10.5877 92.7585C10.5877 90.8873 11.0622 89.286 12.0112 87.9545C12.9967 86.5871 14.3472 85.5256 16.0627 84.7699C17.8147 84.0142 19.8587 83.6364 22.1947 83.6364C24.2387 83.6364 26.1731 83.9602 27.9981 84.608C29.8231 85.2197 31.4839 86.2273 32.9804 87.6307L30.0239 92.2187C28.5639 91.1032 27.1769 90.2936 25.8629 89.7898C24.5489 89.25 23.2167 88.9801 21.8662 88.9801C21.0997 88.9801 20.3697 89.0701 19.6762 89.25C19.0192 89.4299 18.4717 89.7358 18.0337 90.1676C17.6322 90.5634 17.4315 91.1392 17.4315 91.8949C17.4315 92.5786 17.6139 93.1184 17.9789 93.5142C18.3804 93.8741 18.9644 94.1979 19.7309 94.4858C20.5339 94.7737 21.5012 95.0975 22.6327 95.4574C24.9322 96.1051 26.8666 96.7708 28.4361 97.4545C30.0421 98.1383 31.2466 98.9839 32.0496 99.9915C32.8526 100.963 33.2541 102.313 33.2541 104.04C33.2541 106.847 32.2139 109.042 30.1334 110.625C28.0529 112.208 25.2607 113 21.7567 113Z"/>
<path d="M82.8103 112.46H75.4738V96.5909C75.4738 94.3598 75.0723 92.7225 74.2693 91.679C73.5028 90.5994 72.4261 90.0597 71.0391 90.0597C69.6156 90.0597 68.2468 90.6174 66.9329 91.733C65.6554 92.8125 64.7429 94.2339 64.1954 95.9972V112.46H56.8589V96.5909C56.8589 94.3239 56.4574 92.6686 55.6544 91.625C54.8879 90.5814 53.8112 90.0597 52.4242 90.0597C51.0007 90.0597 49.632 90.5994 48.318 91.679C47.0405 92.7585 46.128 94.1799 45.5805 95.9432V112.46H38.244V84.1761H44.8687V89.4119C45.9637 87.5767 47.4237 86.1733 49.2487 85.2017C51.0737 84.1941 53.1724 83.6903 55.5449 83.6903C57.9174 83.6903 59.7606 84.2661 61.0746 85.4176C62.4251 86.5691 63.2829 87.9905 63.6479 89.6818C64.8159 87.7386 66.2941 86.2633 68.0826 85.2557C69.9076 84.2121 71.9516 83.6903 74.2146 83.6903C76.0031 83.6903 77.4448 84.0142 78.5398 84.6619C79.6713 85.2737 80.5473 86.1193 81.1678 87.1989C81.7883 88.2424 82.208 89.4299 82.427 90.7614C82.6825 92.0928 82.8103 93.4422 82.8103 94.8097V112.46Z"/>
<path d="M87.2266 104.094C87.2266 102.259 87.7376 100.657 88.7596 99.2898C89.8181 97.8864 91.2781 96.8068 93.1396 96.0511C95.001 95.2955 97.1363 94.9176 99.5453 94.9176C100.75 94.9176 101.973 95.0076 103.213 95.1875C104.454 95.3674 105.531 95.6553 106.444 96.0511V94.5398C106.444 92.7405 105.896 91.3551 104.801 90.3835C103.743 89.4119 102.155 88.9261 100.038 88.9261C98.4685 88.9261 96.972 89.196 95.5485 89.7358C94.1251 90.2756 92.6286 91.0672 91.0591 92.1108L88.7048 87.3608C90.6028 86.1373 92.5373 85.2197 94.5083 84.608C96.5158 83.9962 98.6145 83.6903 100.805 83.6903C104.892 83.6903 108.068 84.6979 110.331 86.7131C112.63 88.7282 113.78 91.607 113.78 95.3494V104.364C113.78 105.119 113.908 105.659 114.163 105.983C114.455 106.307 114.912 106.505 115.532 106.577V112.46C114.875 112.568 114.273 112.658 113.725 112.73C113.214 112.802 112.776 112.838 112.411 112.838C110.951 112.838 109.838 112.514 109.072 111.866C108.342 111.219 107.885 110.427 107.703 109.491L107.539 108.034C106.298 109.617 104.746 110.841 102.885 111.705C101.024 112.568 99.1255 113 97.191 113C95.293 113 93.5776 112.622 92.0446 111.866C90.5481 111.075 89.3618 110.013 88.4858 108.682C87.6463 107.314 87.2266 105.785 87.2266 104.094ZM105.075 105.551C105.476 105.119 105.805 104.688 106.06 104.256C106.316 103.824 106.444 103.428 106.444 103.068V100.207C105.568 99.8475 104.619 99.5777 103.597 99.3977C102.575 99.1818 101.608 99.0739 100.695 99.0739C98.797 99.0739 97.2275 99.4877 95.9865 100.315C94.782 101.107 94.1798 102.169 94.1798 103.5C94.1798 104.22 94.3806 104.903 94.782 105.551C95.1835 106.199 95.7675 106.721 96.534 107.116C97.3005 107.512 98.213 107.71 99.2715 107.71C100.367 107.71 101.443 107.512 102.502 107.116C103.56 106.685 104.418 106.163 105.075 105.551Z"/>
<path d="M137.718 90.4375C135.491 90.4375 133.502 90.8693 131.75 91.733C129.998 92.5606 128.739 93.7661 127.972 95.3494V112.46H120.636V84.1761H127.37V90.2216C128.392 88.2784 129.688 86.7491 131.257 85.6335C132.827 84.518 134.488 83.9063 136.24 83.7983C136.641 83.7983 136.951 83.7983 137.17 83.7983C137.389 83.7983 137.572 83.8163 137.718 83.8523V90.4375Z"/>
<path d="M159 111.003C158.38 111.255 157.631 111.543 156.755 111.866C155.879 112.19 154.93 112.442 153.908 112.622C152.923 112.838 151.919 112.946 150.897 112.946C149.547 112.946 148.306 112.712 147.174 112.244C146.043 111.777 145.13 111.039 144.437 110.031C143.78 108.988 143.451 107.638 143.451 105.983V89.7358H139.673V84.1761H143.451V75H150.788V84.1761H156.81V89.7358H150.788V103.554C150.824 104.526 151.098 105.227 151.609 105.659C152.12 106.091 152.759 106.307 153.525 106.307C154.292 106.307 155.04 106.181 155.77 105.929C156.5 105.677 157.084 105.461 157.522 105.281L159 111.003Z"/>
</mask>
<path d="M21.7567 113C19.3112 113 16.9752 112.604 14.7487 111.813C12.5222 111.021 10.606 109.851 9 108.304L11.628 103.608C13.3435 104.975 15.0225 105.983 16.665 106.631C18.3439 107.278 19.9499 107.602 21.4829 107.602C22.9064 107.602 24.0379 107.35 24.8774 106.847C25.7534 106.343 26.1914 105.587 26.1914 104.58C26.1914 103.896 25.9541 103.374 25.4797 103.014C25.0052 102.618 24.3117 102.277 23.3992 101.989C22.5232 101.701 21.4464 101.377 20.1689 101.017C18.0519 100.333 16.2817 99.6676 14.8582 99.0199C13.4347 98.3722 12.358 97.5625 11.628 96.5909C10.9345 95.5833 10.5877 94.3059 10.5877 92.7585C10.5877 90.8873 11.0622 89.286 12.0112 87.9545C12.9967 86.5871 14.3472 85.5256 16.0627 84.7699C17.8147 84.0142 19.8587 83.6364 22.1947 83.6364C24.2387 83.6364 26.1731 83.9602 27.9981 84.608C29.8231 85.2197 31.4839 86.2273 32.9804 87.6307L30.0239 92.2187C28.5639 91.1032 27.1769 90.2936 25.8629 89.7898C24.5489 89.25 23.2167 88.9801 21.8662 88.9801C21.0997 88.9801 20.3697 89.0701 19.6762 89.25C19.0192 89.4299 18.4717 89.7358 18.0337 90.1676C17.6322 90.5634 17.4315 91.1392 17.4315 91.8949C17.4315 92.5786 17.6139 93.1184 17.9789 93.5142C18.3804 93.8741 18.9644 94.1979 19.7309 94.4858C20.5339 94.7737 21.5012 95.0975 22.6327 95.4574C24.9322 96.1051 26.8666 96.7708 28.4361 97.4545C30.0421 98.1383 31.2466 98.9839 32.0496 99.9915C32.8526 100.963 33.2541 102.313 33.2541 104.04C33.2541 106.847 32.2139 109.042 30.1334 110.625C28.0529 112.208 25.2607 113 21.7567 113Z" fill="white"/>
<path d="M82.8103 112.46H75.4738V96.5909C75.4738 94.3598 75.0723 92.7225 74.2693 91.679C73.5028 90.5994 72.4261 90.0597 71.0391 90.0597C69.6156 90.0597 68.2468 90.6174 66.9329 91.733C65.6554 92.8125 64.7429 94.2339 64.1954 95.9972V112.46H56.8589V96.5909C56.8589 94.3239 56.4574 92.6686 55.6544 91.625C54.8879 90.5814 53.8112 90.0597 52.4242 90.0597C51.0007 90.0597 49.632 90.5994 48.318 91.679C47.0405 92.7585 46.128 94.1799 45.5805 95.9432V112.46H38.244V84.1761H44.8687V89.4119C45.9637 87.5767 47.4237 86.1733 49.2487 85.2017C51.0737 84.1941 53.1724 83.6903 55.5449 83.6903C57.9174 83.6903 59.7606 84.2661 61.0746 85.4176C62.4251 86.5691 63.2829 87.9905 63.6479 89.6818C64.8159 87.7386 66.2941 86.2633 68.0826 85.2557C69.9076 84.2121 71.9516 83.6903 74.2146 83.6903C76.0031 83.6903 77.4448 84.0142 78.5398 84.6619C79.6713 85.2737 80.5473 86.1193 81.1678 87.1989C81.7883 88.2424 82.208 89.4299 82.427 90.7614C82.6825 92.0928 82.8103 93.4422 82.8103 94.8097V112.46Z" fill="white"/>
<path d="M87.2266 104.094C87.2266 102.259 87.7376 100.657 88.7596 99.2898C89.8181 97.8864 91.2781 96.8068 93.1396 96.0511C95.001 95.2955 97.1363 94.9176 99.5453 94.9176C100.75 94.9176 101.973 95.0076 103.213 95.1875C104.454 95.3674 105.531 95.6553 106.444 96.0511V94.5398C106.444 92.7405 105.896 91.3551 104.801 90.3835C103.743 89.4119 102.155 88.9261 100.038 88.9261C98.4685 88.9261 96.972 89.196 95.5485 89.7358C94.1251 90.2756 92.6286 91.0672 91.0591 92.1108L88.7048 87.3608C90.6028 86.1373 92.5373 85.2197 94.5083 84.608C96.5158 83.9962 98.6145 83.6903 100.805 83.6903C104.892 83.6903 108.068 84.6979 110.331 86.7131C112.63 88.7282 113.78 91.607 113.78 95.3494V104.364C113.78 105.119 113.908 105.659 114.163 105.983C114.455 106.307 114.912 106.505 115.532 106.577V112.46C114.875 112.568 114.273 112.658 113.725 112.73C113.214 112.802 112.776 112.838 112.411 112.838C110.951 112.838 109.838 112.514 109.072 111.866C108.342 111.219 107.885 110.427 107.703 109.491L107.539 108.034C106.298 109.617 104.746 110.841 102.885 111.705C101.024 112.568 99.1255 113 97.191 113C95.293 113 93.5776 112.622 92.0446 111.866C90.5481 111.075 89.3618 110.013 88.4858 108.682C87.6463 107.314 87.2266 105.785 87.2266 104.094ZM105.075 105.551C105.476 105.119 105.805 104.688 106.06 104.256C106.316 103.824 106.444 103.428 106.444 103.068V100.207C105.568 99.8475 104.619 99.5777 103.597 99.3977C102.575 99.1818 101.608 99.0739 100.695 99.0739C98.797 99.0739 97.2275 99.4877 95.9865 100.315C94.782 101.107 94.1798 102.169 94.1798 103.5C94.1798 104.22 94.3806 104.903 94.782 105.551C95.1835 106.199 95.7675 106.721 96.534 107.116C97.3005 107.512 98.213 107.71 99.2715 107.71C100.367 107.71 101.443 107.512 102.502 107.116C103.56 106.685 104.418 106.163 105.075 105.551Z" fill="white"/>
<path d="M137.718 90.4375C135.491 90.4375 133.502 90.8693 131.75 91.733C129.998 92.5606 128.739 93.7661 127.972 95.3494V112.46H120.636V84.1761H127.37V90.2216C128.392 88.2784 129.688 86.7491 131.257 85.6335C132.827 84.518 134.488 83.9063 136.24 83.7983C136.641 83.7983 136.951 83.7983 137.17 83.7983C137.389 83.7983 137.572 83.8163 137.718 83.8523V90.4375Z" fill="white"/>
<path d="M159 111.003C158.38 111.255 157.631 111.543 156.755 111.866C155.879 112.19 154.93 112.442 153.908 112.622C152.923 112.838 151.919 112.946 150.897 112.946C149.547 112.946 148.306 112.712 147.174 112.244C146.043 111.777 145.13 111.039 144.437 110.031C143.78 108.988 143.451 107.638 143.451 105.983V89.7358H139.673V84.1761H143.451V75H150.788V84.1761H156.81V89.7358H150.788V103.554C150.824 104.526 151.098 105.227 151.609 105.659C152.12 106.091 152.759 106.307 153.525 106.307C154.292 106.307 155.04 106.181 155.77 105.929C156.5 105.677 157.084 105.461 157.522 105.281L159 111.003Z" fill="white"/>
<path d="M21.7567 113C19.3112 113 16.9752 112.604 14.7487 111.813C12.5222 111.021 10.606 109.851 9 108.304L11.628 103.608C13.3435 104.975 15.0225 105.983 16.665 106.631C18.3439 107.278 19.9499 107.602 21.4829 107.602C22.9064 107.602 24.0379 107.35 24.8774 106.847C25.7534 106.343 26.1914 105.587 26.1914 104.58C26.1914 103.896 25.9541 103.374 25.4797 103.014C25.0052 102.618 24.3117 102.277 23.3992 101.989C22.5232 101.701 21.4464 101.377 20.1689 101.017C18.0519 100.333 16.2817 99.6676 14.8582 99.0199C13.4347 98.3722 12.358 97.5625 11.628 96.5909C10.9345 95.5833 10.5877 94.3059 10.5877 92.7585C10.5877 90.8873 11.0622 89.286 12.0112 87.9545C12.9967 86.5871 14.3472 85.5256 16.0627 84.7699C17.8147 84.0142 19.8587 83.6364 22.1947 83.6364C24.2387 83.6364 26.1731 83.9602 27.9981 84.608C29.8231 85.2197 31.4839 86.2273 32.9804 87.6307L30.0239 92.2187C28.5639 91.1032 27.1769 90.2936 25.8629 89.7898C24.5489 89.25 23.2167 88.9801 21.8662 88.9801C21.0997 88.9801 20.3697 89.0701 19.6762 89.25C19.0192 89.4299 18.4717 89.7358 18.0337 90.1676C17.6322 90.5634 17.4315 91.1392 17.4315 91.8949C17.4315 92.5786 17.6139 93.1184 17.9789 93.5142C18.3804 93.8741 18.9644 94.1979 19.7309 94.4858C20.5339 94.7737 21.5012 95.0975 22.6327 95.4574C24.9322 96.1051 26.8666 96.7708 28.4361 97.4545C30.0421 98.1383 31.2466 98.9839 32.0496 99.9915C32.8526 100.963 33.2541 102.313 33.2541 104.04C33.2541 106.847 32.2139 109.042 30.1334 110.625C28.0529 112.208 25.2607 113 21.7567 113Z" stroke="#2F4866" stroke-width="14" mask="url(#path-4-outside-1_584_159)"/>
<path d="M82.8103 112.46H75.4738V96.5909C75.4738 94.3598 75.0723 92.7225 74.2693 91.679C73.5028 90.5994 72.4261 90.0597 71.0391 90.0597C69.6156 90.0597 68.2468 90.6174 66.9329 91.733C65.6554 92.8125 64.7429 94.2339 64.1954 95.9972V112.46H56.8589V96.5909C56.8589 94.3239 56.4574 92.6686 55.6544 91.625C54.8879 90.5814 53.8112 90.0597 52.4242 90.0597C51.0007 90.0597 49.632 90.5994 48.318 91.679C47.0405 92.7585 46.128 94.1799 45.5805 95.9432V112.46H38.244V84.1761H44.8687V89.4119C45.9637 87.5767 47.4237 86.1733 49.2487 85.2017C51.0737 84.1941 53.1724 83.6903 55.5449 83.6903C57.9174 83.6903 59.7606 84.2661 61.0746 85.4176C62.4251 86.5691 63.2829 87.9905 63.6479 89.6818C64.8159 87.7386 66.2941 86.2633 68.0826 85.2557C69.9076 84.2121 71.9516 83.6903 74.2146 83.6903C76.0031 83.6903 77.4448 84.0142 78.5398 84.6619C79.6713 85.2737 80.5473 86.1193 81.1678 87.1989C81.7883 88.2424 82.208 89.4299 82.427 90.7614C82.6825 92.0928 82.8103 93.4422 82.8103 94.8097V112.46Z" stroke="#2F4866" stroke-width="14" mask="url(#path-4-outside-1_584_159)"/>
<path d="M87.2266 104.094C87.2266 102.259 87.7376 100.657 88.7596 99.2898C89.8181 97.8864 91.2781 96.8068 93.1396 96.0511C95.001 95.2955 97.1363 94.9176 99.5453 94.9176C100.75 94.9176 101.973 95.0076 103.213 95.1875C104.454 95.3674 105.531 95.6553 106.444 96.0511V94.5398C106.444 92.7405 105.896 91.3551 104.801 90.3835C103.743 89.4119 102.155 88.9261 100.038 88.9261C98.4685 88.9261 96.972 89.196 95.5485 89.7358C94.1251 90.2756 92.6286 91.0672 91.0591 92.1108L88.7048 87.3608C90.6028 86.1373 92.5373 85.2197 94.5083 84.608C96.5158 83.9962 98.6145 83.6903 100.805 83.6903C104.892 83.6903 108.068 84.6979 110.331 86.7131C112.63 88.7282 113.78 91.607 113.78 95.3494V104.364C113.78 105.119 113.908 105.659 114.163 105.983C114.455 106.307 114.912 106.505 115.532 106.577V112.46C114.875 112.568 114.273 112.658 113.725 112.73C113.214 112.802 112.776 112.838 112.411 112.838C110.951 112.838 109.838 112.514 109.072 111.866C108.342 111.219 107.885 110.427 107.703 109.491L107.539 108.034C106.298 109.617 104.746 110.841 102.885 111.705C101.024 112.568 99.1255 113 97.191 113C95.293 113 93.5776 112.622 92.0446 111.866C90.5481 111.075 89.3618 110.013 88.4858 108.682C87.6463 107.314 87.2266 105.785 87.2266 104.094ZM105.075 105.551C105.476 105.119 105.805 104.688 106.06 104.256C106.316 103.824 106.444 103.428 106.444 103.068V100.207C105.568 99.8475 104.619 99.5777 103.597 99.3977C102.575 99.1818 101.608 99.0739 100.695 99.0739C98.797 99.0739 97.2275 99.4877 95.9865 100.315C94.782 101.107 94.1798 102.169 94.1798 103.5C94.1798 104.22 94.3806 104.903 94.782 105.551C95.1835 106.199 95.7675 106.721 96.534 107.116C97.3005 107.512 98.213 107.71 99.2715 107.71C100.367 107.71 101.443 107.512 102.502 107.116C103.56 106.685 104.418 106.163 105.075 105.551Z" stroke="#2F4866" stroke-width="14" mask="url(#path-4-outside-1_584_159)"/>
<path d="M137.718 90.4375C135.491 90.4375 133.502 90.8693 131.75 91.733C129.998 92.5606 128.739 93.7661 127.972 95.3494V112.46H120.636V84.1761H127.37V90.2216C128.392 88.2784 129.688 86.7491 131.257 85.6335C132.827 84.518 134.488 83.9063 136.24 83.7983C136.641 83.7983 136.951 83.7983 137.17 83.7983C137.389 83.7983 137.572 83.8163 137.718 83.8523V90.4375Z" stroke="#2F4866" stroke-width="14" mask="url(#path-4-outside-1_584_159)"/>
<path d="M159 111.003C158.38 111.255 157.631 111.543 156.755 111.866C155.879 112.19 154.93 112.442 153.908 112.622C152.923 112.838 151.919 112.946 150.897 112.946C149.547 112.946 148.306 112.712 147.174 112.244C146.043 111.777 145.13 111.039 144.437 110.031C143.78 108.988 143.451 107.638 143.451 105.983V89.7358H139.673V84.1761H143.451V75H150.788V84.1761H156.81V89.7358H150.788V103.554C150.824 104.526 151.098 105.227 151.609 105.659C152.12 106.091 152.759 106.307 153.525 106.307C154.292 106.307 155.04 106.181 155.77 105.929C156.5 105.677 157.084 105.461 157.522 105.281L159 111.003Z" stroke="#2F4866" stroke-width="14" mask="url(#path-4-outside-1_584_159)"/>
<path d="M184.305 133.805C173.616 144.495 159.117 150.5 144 150.5C128.883 150.5 114.384 144.495 103.695 133.805L118.947 118.553C125.592 125.197 134.603 128.93 144 128.93C153.397 128.93 162.408 125.197 169.053 118.553L184.305 133.805Z" fill="white"/>
</svg>
